<?xml version="1.0" standalone="no"?>
<!DOCTYPE svg PUBLIC "-//W3C//DTD SVG 20010904//EN"
 "http://www.w3.org/TR/2001/REC-SVG-20010904/DTD/svg10.dtd">
<svg version="1.0" xmlns="http://www.w3.org/2000/svg"
 width="500.000000pt" height="500.000000pt" viewBox="0 0 500.000000 500.000000"
 preserveAspectRatio="xMidYMid meet">

<g transform="translate(0.000000,500.000000) scale(0.100000,-0.100000)"
fill="#000000" stroke="none">
<path d="M2445 4731 c-67 -41 -1732 -1250 -1757 -1276 l-28 -28 0 -911 c0
-849 1 -913 18 -938 9 -15 413 -319 897 -675 820 -603 883 -648 925 -651 l46
-4 864 631 c476 347 880 647 898 666 l32 35 0 919 c0 678 -3 927 -12 946 -6
14 -30 36 -52 48 -23 13 -421 301 -884 640 -920 673 -874 644 -947 598z m828
-800 c598 -435 745 -547 735 -557 -15 -14 -1452 -1054 -1484 -1074 -20 -12
-78 28 -782 531 -419 299 -760 547 -759 551 5 16 1522 1106 1532 1100 5 -3
347 -251 758 -551z m837 -1515 l0 -735 -707 -517 c-390 -285 -723 -528 -740
-542 l-33 -24 0 743 1 744 737 532 c405 292 738 532 740 532 1 1 2 -329 2
-733z m-2476 203 c402 -287 737 -527 744 -533 9 -9 12 -167 10 -749 l-3 -736
-745 547 -745 548 -3 722 c-1 397 1 722 4 722 4 0 336 -235 738 -521z"/>
</g>
</svg>
